# xmcd
#
# Track frame offsets:
#	150
#	14046
#	23926
#	38710
#	57159
#	73757
#	90339
#	94911
#	111187
#	126070
#	133891
#	149164
#	159226
#	170514
#	184659
#	201762
#	214759
#	220855
#	236726
#	256817
#
# Disc length: 3467 seconds
#
# Revision: 0
# Processed by: cddbd v1.5.2PL0 Copyright (c) Steve Scherf et al.
# Submitted via: EasyCDDAExtractor 10.0.2.1
#
DISCID=280d8914
DTITLE=Daniel O'Donnell - Stand Beside Me
DYEAR=2013
DGENRE=Celtic
TTITLE0=Stand Beside Me
TTITLE1=Whatever Will Be Will Be (Que Sera Sera)
TTITLE2=Hey, Mr. Moon
TTITLE3=Flying With Angels
TTITLE4=Our Anniversary
TTITLE5=Erin, Tennessee
TTITLE6=Intro To The Party Jubilee
TTITLE7=My Father's House
TTITLE8=Dear God (w. Mary Duff)
TTITLE9=Beer Barrel Polka (Roll Out The Barrel)
TTITLE10=Silver Wings (w. Leon McCrum, Trionagh Allen and Nigel Connell)
TTITLE11=It's Hard To Be Humble (w. John Staunton)
TTITLE12=Blaze Of Glory
TTITLE13=That's Amore
TTITLE14=God's Plan
TTITLE15=A White Sport Coat (And A Pink Carnation)
TTITLE16=Stand Beside Me (Reprise)
TTITLE17=Rivers Of Babylon
TTITLE18=How Great Thou Art
TTITLE19=Blaze Of Glory (Reprise)
EXTD=
EXTT0=
EXTT1=
EXTT2=
EXTT3=
EXTT4=
EXTT5=
EXTT6=
EXTT7=
EXTT8=
EXTT9=
EXTT10=
EXTT11=
EXTT12=
EXTT13=
EXTT14=
EXTT15=
EXTT16=
EXTT17=
EXTT18=
EXTT19=
PLAYORDER=
